# Blender 4.0.1
# www.blender.org
mtllib area2.mtl
o Plane
v -1.000000 0.000000 1.000000
v 1.000000 0.000000 1.000000
v -1.000000 0.000000 -1.000000
v 1.000000 0.000000 -1.000000
v 2.986741 0.000000 1.000000
v 2.986741 0.000000 -1.000000
v 4.979612 0.000000 1.000000
v 4.979612 0.000000 -1.000000
v -1.000000 0.000000 2.982687
v 1.000000 0.000000 2.982687
v 2.986741 0.000000 2.982687
v 4.979612 0.000000 2.982687
v -1.000000 0.000000 4.945596
v 1.000000 0.000000 4.945596
v 2.986741 0.000000 4.945596
v 4.979612 0.000000 4.945596
v 6.996331 0.000000 1.000000
v 6.996331 0.000000 -1.000000
v 6.996331 0.000000 2.982687
v 6.996331 0.000000 4.945596
v 9.498864 0.000000 1.504342
v 8.994522 0.000000 -1.000000
v 9.498864 0.000000 2.478345
v 8.994522 0.000000 4.945596
v 10.463444 0.000000 1.504342
v 10.967786 0.000000 -1.000000
v 10.463444 0.000000 2.478345
v 10.967786 0.000000 4.945596
v 12.990883 0.000000 1.000000
v 12.990883 0.000000 -1.000000
v 12.990883 0.000000 2.982687
v 12.990883 0.000000 4.945596
v 4.979612 0.000000 6.993896
v 6.996331 0.000000 6.993896
v 9.489741 0.000000 7.489116
v 10.472567 0.000000 7.489116
v 12.990883 0.000000 6.993896
v 4.979612 0.000000 8.969271
v 6.996331 0.000000 8.969271
v 9.489741 0.000000 8.474051
v 10.472567 0.000000 8.474051
v 12.990883 0.000000 8.969271
v 4.979612 0.000000 11.001083
v 6.996331 0.000000 11.001083
v 8.994522 0.000000 11.001083
v 10.967786 0.000000 11.001083
v 12.990883 0.000000 11.001083
v 6.996331 0.000000 12.993732
v 8.994522 0.000000 12.993732
v 6.996331 0.000000 14.997326
v 8.994522 0.000000 14.997326
v 5.020957 0.000000 12.993732
v 5.020957 0.000000 14.997326
v -2.975374 0.000000 1.000000
v -2.975374 0.000000 2.982687
v -4.978968 0.000000 1.000000
v -4.978968 0.000000 2.982687
v -2.975374 0.000000 4.986280
v -4.978968 0.000000 4.986280
v -2.975374 0.000000 6.989874
v -4.978968 0.000000 6.989874
v -2.975374 0.000000 8.993467
v -4.978968 0.000000 8.993467
v -1.028220 0.000000 6.989874
v -1.028220 0.000000 8.993467
v 0.995833 0.000000 6.989874
v 0.995833 0.000000 8.993467
v -2.975374 0.000000 10.997061
v -4.978968 0.000000 10.997061
v -1.028220 0.000000 10.997061
v 0.995833 0.000000 10.997061
v 3.012268 0.000000 12.993732
v 3.012268 0.000000 14.997326
v 5.020957 0.000000 11.006818
v 3.012268 0.000000 11.006818
v 5.020957 0.000000 16.984241
v 3.012268 0.000000 16.984241
v 1.011745 0.000000 12.993732
v 1.011745 0.000000 14.997326
v 1.011745 0.000000 11.006818
v 1.011745 0.000000 16.984241
v -2.975374 0.000000 12.983975
v -4.978968 0.000000 12.983975
v -2.975374 0.000000 14.984499
v -4.978968 0.000000 14.984499
v -2.975374 0.000000 16.971413
v -4.978968 0.000000 16.971413
v -1.015677 0.000000 14.984499
v -1.015677 0.000000 16.971413
v -1.000000 7.948454 1.000000
v -1.000000 7.948454 -1.000000
v 1.000000 7.948454 -1.000000
v 2.986741 7.948454 -1.000000
v 4.979612 7.948454 -1.000000
v 6.996331 7.948454 -1.000000
v 8.994522 7.948454 -1.000000
v 10.967786 7.948454 -1.000000
v 12.990883 7.948454 1.000000
v 12.990883 7.948454 -1.000000
v 12.990883 7.948454 2.982687
v 12.990883 7.948454 4.945596
v 12.990883 7.948454 6.993896
v 12.990883 7.948454 8.969271
v 8.994522 7.948454 11.001083
v 10.967786 7.948454 11.001083
v 12.990883 7.948454 11.001083
v 8.994522 7.948454 12.993732
v 6.996331 7.948454 14.997326
v 8.994522 7.948454 14.997326
v 5.020957 7.948454 14.997326
v -2.975374 7.948454 1.000000
v -4.978968 7.948454 1.000000
v -4.978968 7.948454 2.982687
v -4.978968 7.948454 4.986280
v -4.978968 7.948454 6.989874
v -4.978968 7.948454 8.993467
v -4.978968 7.948454 10.997061
v 5.020957 7.948454 16.984241
v 3.012268 7.948454 16.984241
v 1.011745 7.948454 16.984241
v -4.978968 7.948454 12.983975
v -4.978968 7.948454 14.984499
v -2.975374 7.948454 16.971413
v -4.978968 7.948454 16.971413
v -1.015677 7.948454 16.971413
v 4.979612 7.909443 11.001083
v 6.996331 7.909443 11.001083
v 6.996331 7.909443 12.993732
v 5.020957 7.909443 12.993732
v 5.020957 7.909443 11.006818
v -1.000000 7.914320 2.982687
v -1.000000 7.914320 4.945596
v 1.000000 7.914320 4.945596
v 2.986741 7.914320 4.945596
v 4.979612 7.914320 4.945596
v 4.979612 7.914320 6.993896
v 4.979612 7.914320 8.969271
v 4.979612 7.914320 11.001083
v -2.975374 7.914320 2.982687
v -2.975374 7.914320 4.986280
v -2.975374 7.914320 6.989874
v -1.028220 7.914320 6.989874
v 0.995833 7.914320 6.989874
v 0.995833 7.914320 8.993467
v 0.995833 7.914320 10.997061
v 5.020957 7.914320 11.006818
v 3.012268 7.914320 11.006818
v 1.011745 7.914320 11.006818
v 4.979612 7.919196 1.000000
v 4.979612 7.919196 -1.000000
v 4.979612 7.919196 2.982687
v 4.979612 7.919196 4.945596
v 8.994522 0.000000 6.993896
v 10.967786 0.000000 6.993896
v 8.994522 0.000000 8.969271
v 10.967786 0.000000 8.969271
v 8.994522 0.000000 2.982687
v 8.994522 0.000000 1.000000
v 10.967786 0.000000 2.982687
v 10.967786 0.000000 1.000000
v 9.489741 7.932200 7.489116
v 10.472567 7.932200 7.489116
v 9.489741 7.932200 8.474051
v 10.472567 7.932200 8.474051
v 9.498864 7.932200 2.478345
v 9.498864 7.932200 1.504342
v 10.463444 7.932200 2.478345
v 10.463444 7.932200 1.504342
v 4.979612 5.059515 2.982687
v 4.979612 5.059506 1.000000
v -4.978968 5.059598 6.989874
v -2.975374 5.059710 6.989874
v 6.996331 5.059984 11.001083
v 8.994522 5.054095 11.001083
v 5.020957 5.062097 12.993732
v 5.020957 5.061937 14.997326
v -1.000000 5.060565 1.000000
v -1.000000 5.060628 2.982687
vn -0.0000 1.0000 -0.0000
vn -0.0000 -0.0000 1.0000
vn -1.0000 -0.0000 -0.0000
vn -0.0000 -0.0000 -1.0000
vn 1.0000 -0.0000 -0.0000
vn 0.0063 -0.0000 -1.0000
vn 0.0098 -0.9999 0.0097
vn 0.0040 -1.0000 -0.0012
vn 0.0022 -1.0000 -0.0057
vn -0.0107 -0.9999 -0.0064
vn -0.0030 -1.0000 0.0037
vt -0.610304 2.050269
vt -0.166871 2.050269
vt -0.166871 2.493702
vt -0.610304 2.493702
vt 0.273623 2.050269
vt 0.273623 2.493703
vt 0.715475 2.050269
vt 0.715475 2.493702
vt 0.273623 1.610674
vt 0.715476 1.610675
vt -0.166870 1.610674
vt -0.610304 1.610675
vt 0.273623 1.175465
vt 0.715476 1.175465
vt -0.166870 1.175465
vt -0.610304 1.175465
vt 1.162616 1.175465
vt 1.162616 1.610675
vt 1.162616 2.050269
vt 1.162616 2.493702
vt 1.605648 1.175465
vt 1.605648 1.610675
vt 1.605648 2.050269
vt 1.605648 2.493702
vt 2.043153 1.175465
vt 2.043153 1.610675
vt 2.043153 2.050269
vt 2.043153 2.493702
vt 2.491707 1.175465
vt 2.491707 1.610675
vt 2.491707 2.050269
vt 2.491707 2.493702
vt 0.715476 0.721323
vt 1.162616 0.721323
vt 1.605648 0.721323
vt 2.043153 0.721323
vt 2.491707 0.721323
vt 2.043153 0.283350
vt 2.491707 0.283350
vt 1.162616 0.283350
vt 1.605648 0.283350
vt 0.996959 1.180160
vt 0.831540 1.180160
vt 0.831540 -0.180160
vt 0.996959 -0.180160
vt 0.715476 0.283349
vt 0.715476 -0.167137
vt 1.162615 -0.167137
vt 2.043153 -0.167137
vt 2.491707 -0.167137
vt 1.605648 -0.167137
vt 1.162616 -0.608940
vt 1.605648 -0.608940
vt 1.162616 -1.053170
vt 1.605648 -1.053170
vt 0.724643 -0.608940
vt 0.724643 -1.053170
vt -1.048277 2.050269
vt -1.048277 1.610675
vt -1.492507 2.050269
vt -1.492507 1.610675
vt -1.492507 1.166444
vt -1.048277 1.166444
vt -1.492507 0.722215
vt -1.048277 0.722215
vt -1.492507 0.277985
vt -1.048277 0.277985
vt -0.616561 0.277985
vt -0.616561 0.722215
vt -0.167795 0.277985
vt -0.167795 0.722215
vt -0.616561 -0.166245
vt -0.167795 -0.166245
vt -1.048277 -0.166245
vt -1.492507 -0.166245
vt 0.279283 -0.608940
vt 0.279283 -1.053170
vt 0.724642 -0.168408
vt 0.279283 -0.168408
vt 0.279283 -1.493703
vt 0.724642 -1.493703
vt -0.164266 -1.053170
vt -0.164266 -1.493703
vt -0.164267 -0.168408
vt -0.164266 -0.608940
vt -1.492507 -0.606777
vt -1.048277 -0.606777
vt -1.492507 -1.050327
vt -1.048277 -1.050326
vt -1.492507 -1.490858
vt -1.048277 -1.490858
vt -0.613779 -1.490858
vt -0.613779 -1.050326
vt 1.723614 -0.609564
vt 1.443220 -0.609564
vt 1.443220 -1.723914
vt 1.723614 -1.723914
vt -0.512523 2.182183
vt -0.789169 2.182183
vt -0.789169 1.473614
vt -0.789169 1.067833
vt -0.512523 1.067833
vt 0.468352 -0.470082
vt 0.189817 -0.470082
vt 0.189817 -1.584432
vt 0.468352 -1.584432
vt -0.250406 -0.569360
vt -0.531304 -0.569360
vt -0.531304 -1.683710
vt -0.250406 -1.683710
vt -0.250406 -1.278701
vt 2.278552 -0.893648
vt 2.001610 -0.893648
vt 2.001610 -1.603316
vt 2.001610 -2.007998
vt 2.278552 -2.007998
vt 1.165253 -0.609564
vt 1.165253 -1.723914
vt 1.148976 -0.569360
vt 0.870417 -0.569361
vt 0.870417 -1.683710
vt 1.148976 -1.683710
vt -0.228891 2.182183
vt -0.228891 1.067833
vt 0.890059 -0.609564
vt 0.602893 -0.609564
vt 0.602893 -1.723914
vt 0.890059 -1.723914
vt 1.719998 -0.893648
vt 1.439531 -0.893648
vt 1.439531 -2.007998
vt 1.719998 -2.007998
vt 0.311390 -0.569360
vt 0.030492 -0.569360
vt 0.030492 -1.683710
vt 0.311390 -1.683710
vt -0.089578 -0.470082
vt -0.089578 -1.584432
vt -1.347877 2.459847
vt -1.622621 2.459847
vt -1.622621 1.345497
vt -1.347877 1.345497
vt 0.325952 -0.609564
vt 0.041098 -0.609564
vt 0.041098 -1.723914
vt 0.325952 -1.723914
vt 0.882517 0.788869
vt 0.605575 0.788869
vt 0.605575 0.079393
vt 0.605575 -0.325481
vt 0.882517 -0.325481
vt -0.372316 -0.470082
vt -0.652456 -0.470082
vt -0.652456 -1.584432
vt -0.372316 -1.584432
vt -0.812202 -0.569360
vt -1.090169 -0.569360
vt -1.090169 -1.683710
vt -0.812202 -1.683710
vt -0.929102 -0.470082
vt -1.212734 -0.470082
vt -1.212734 -1.584432
vt -0.929102 -1.584432
vt 0.055353 2.182183
vt 0.055353 1.067833
vt 1.163415 0.788869
vt 1.163415 -0.325481
vt 2.557231 0.788869
vt 2.277868 0.788869
vt 2.277868 -0.325481
vt 2.557231 -0.325481
vt 2.557231 0.080300
vt 0.589949 -0.569360
vt 0.589949 -1.683710
vt 2.558692 -0.893648
vt 2.558692 -2.007998
vt -0.510609 1.067833
vt -0.789169 1.067833
vt -0.789169 -0.046517
vt -0.510609 -0.046517
vt -0.510609 0.358164
vt 1.996970 0.788869
vt 1.996970 -0.325481
vt 0.748746 -0.470082
vt 0.748746 -1.584432
vt -1.903519 2.459847
vt -1.903519 1.345497
vt 2.851488 1.897749
vt 2.574546 1.897749
vt 2.574546 0.788869
vt 2.851488 0.788869
vt 2.851488 1.188058
vt 2.839969 0.783399
vt 2.557231 0.783399
vt 2.557231 -0.325481
vt 2.839969 -0.325481
vt 2.839969 0.074005
vt 2.838056 -0.899117
vt 2.558692 -0.899117
vt 2.558692 -1.608512
vt 2.558692 -2.007998
vt 2.838056 -2.007998
vt 0.048848 1.067833
vt -0.229711 1.067833
vt -0.229711 0.358142
vt -0.229711 -0.041048
vt 0.048848 -0.041048
vt 2.012466 1.898433
vt 1.733072 1.898433
vt 1.733072 0.788869
vt 2.012466 0.788869
vt 2.574546 1.898433
vt 2.294078 1.898433
vt 2.294078 0.788869
vt 2.574546 0.788869
vt 0.612347 1.898433
vt 0.325181 1.898433
vt 0.325181 0.788869
vt 0.612347 0.788869
vt 0.886977 3.007998
vt 0.606079 3.007998
vt 0.606079 1.898433
vt 0.886977 1.898433
vt -0.790795 2.455061
vt -1.067737 2.455061
vt -1.067737 1.345497
vt -0.790795 1.345497
vt -0.790795 1.745576
vt -1.346767 1.345497
vt -1.619753 1.345497
vt -1.619753 0.235933
vt -1.346767 0.235933
vt -1.346767 0.636141
vt 2.012466 1.898433
vt 2.012466 0.788869
vt 1.158736 0.788869
vt 0.883542 0.788869
vt 0.883542 0.079384
vt 0.883542 -0.320696
vt 1.158736 -0.320696
vt 1.167875 3.007998
vt 1.167875 1.898433
vt 1.174142 1.898433
vt 0.889288 1.898433
vt 0.889288 0.788869
vt 1.174142 0.788869
vt 0.325181 3.007998
vt 0.325181 2.298641
vt 0.325181 1.898433
vt 1.454536 1.898433
vt 1.454536 0.788869
vt 1.448772 3.007998
vt 1.448772 1.898433
vt -1.903519 0.235933
vt 0.328923 1.180160
vt 0.160374 1.180160
vt 0.160374 -0.180160
vt 0.328923 -0.180160
vt 1.996970 0.784767
vt 1.721775 0.784767
vt 1.721775 0.075438
vt 1.721775 -0.325481
vt 1.996970 -0.325481
vt 1.443809 0.784767
vt 1.163414 0.784767
vt 1.163414 -0.325481
vt 1.443809 -0.325481
vt 1.443809 0.075439
vt -1.065870 0.231148
vt -1.065870 0.636157
vt 1.715446 0.611525
vt 1.933355 0.611525
vt 1.933355 0.393148
vt 1.715446 0.393148
vt 1.717469 1.722496
vt 1.717469 1.938448
vt 1.931332 1.938448
vt 1.931332 1.722496
vt 1.000000 0.000000
vt 1.000000 0.000000
vt 0.664506 1.180160
vt 0.497471 1.180160
vt 0.497471 -0.180160
vt 0.664506 -0.180160
vt -0.008535 1.180160
vt -0.177445 1.180160
vt -0.177445 -0.180160
vt -0.008535 -0.180160
vt 1.162379 1.180160
vt 0.996960 1.180160
vt 0.996960 -0.180160
vt 1.162379 -0.180160
vt 0.497471 1.180160
vt 0.328923 1.180160
vt 0.328923 -0.180160
vt 0.497471 -0.180160
vt 0.831540 1.180160
vt 0.664505 1.180160
vt 0.664505 -0.180160
vt 0.831540 -0.180160
vt 0.007620 0.665746
vt 0.007620 0.334553
vt 0.007620 0.001541
vt 0.339734 0.001509
vt 0.668056 0.001478
vt 0.668119 0.334553
vt 0.339797 0.334584
vt 0.339797 0.665777
vt 1.001418 1.257969
vt 1.001419 1.513164
vt 0.747321 1.513163
vt 0.499481 1.513163
vt 0.248491 1.513169
vt -0.004803 1.513167
vt -0.004806 1.513168
vt -0.004804 1.257973
vt -0.004805 1.009866
vt -0.004806 0.752601
vt -0.004803 0.752600
vt -0.004804 0.506059
vt -0.004805 0.257034
vt -0.004806 0.005835
vt -0.004791 0.005831
vt 0.248506 0.005831
vt 0.499476 0.005832
vt 0.747316 0.005832
vt 1.001414 0.005832
vt 1.001415 0.257032
vt 1.001416 0.506056
vt 1.001417 0.752597
vt 1.001418 1.009863
vt 0.005126 0.017046
vt 0.334541 0.017048
vt 0.661773 0.017050
vt 0.990015 0.017052
vt 0.990273 0.464270
vt 0.990010 0.996352
vt 0.990008 0.673050
vt 0.990006 0.346491
vt 0.990009 0.996357
vt 0.661767 0.996355
vt 0.334535 0.996353
vt 0.005120 0.996351
vt 0.005117 0.673048
vt 0.005128 0.346457
vt 0.664138 -0.001282
vt 0.664199 0.329178
vt 0.335007 0.329200
vt 0.335007 0.663108
vt 0.335007 0.997015
vt 0.001051 0.997001
vt 0.001051 0.663094
vt 0.001051 0.329187
vt 0.001051 -0.001236
vt 0.334946 -0.001259
vt 0.997000 0.002377
vt 0.997021 0.338699
vt 0.997021 0.665531
vt 0.997021 1.005269
vt 0.660717 1.005273
vt 0.324414 1.005277
vt 0.322776 1.007947
vt 0.322776 1.343737
vt 0.322776 1.680897
vt 0.322779 1.680899
vt -0.010725 1.680903
vt -0.347053 1.680886
vt -0.680558 1.680890
vt -0.680558 1.343730
vt -0.680558 1.007941
vt -0.678405 0.667637
vt -0.678405 0.338701
vt -0.678405 0.002396
vt -0.344900 0.002392
vt -0.009112 0.002389
vt 0.324393 0.002385
vt 0.660696 0.002381
vt -1.067737 1.750453
vt -1.347877 1.751278
vt -1.067737 1.350967
vt 0.325181 -0.325481
vt 0.325181 0.788869
s 0
usemtl wall
f 23/42/2 27/43/2 167/44/2 165/45/2
f 30/94/3 29/95/3 98/96/3 99/97/3
f 46/98/4 45/99/4 174/100/4 104/101/4 105/102/4
f 4/103/2 6/104/2 93/105/2 92/106/2
f 61/107/5 59/108/5 114/109/5 115/110/5 171/111/5
f 50/112/4 53/113/4 176/114/4 110/115/4 108/116/4
f 29/95/3 31/117/3 100/118/3 98/96/3
f 87/119/5 85/120/5 122/121/5 124/122/5
f 47/123/4 46/98/4 105/102/4 106/124/4
f 32/125/3 37/126/3 102/127/3 101/128/3
f 31/117/3 32/125/3 101/128/3 100/118/3
f 77/129/4 81/130/4 120/131/4 119/132/4
f 69/133/5 63/134/5 116/135/5 117/136/5
f 6/104/2 8/137/2 94/138/2 93/105/2
f 63/134/5 61/107/5 171/111/5 115/110/5 116/135/5
f 89/139/4 86/140/4 123/141/4 125/142/4
f 42/143/3 47/144/3 106/145/3 103/146/3
f 54/147/2 1/148/2 177/149/2 90/150/2 111/151/2
f 18/152/2 22/153/2 96/154/2 95/155/2
f 57/156/5 56/157/5 112/158/5 113/159/5
f 26/160/2 30/161/2 99/162/2 97/163/2
f 81/164/6 89/123/6 125/124/6 120/165/6
f 37/126/3 42/143/3 103/146/3 102/127/3
f 56/166/2 54/147/2 111/151/2 112/167/2
f 45/168/3 49/169/3 107/170/3 104/171/3 174/172/3
f 83/173/5 69/133/5 117/136/5 121/174/5
f 76/113/4 77/129/4 119/132/4 118/115/4
f 51/175/4 50/112/4 108/116/4 109/176/4
f 59/108/5 57/156/5 113/159/5 114/109/5
f 53/177/3 76/178/3 118/179/3 110/180/3 176/181/3
f 49/169/3 51/182/3 109/183/3 107/170/3
f 85/120/5 83/173/5 121/174/5 122/121/5
f 3/184/2 4/103/2 92/106/2 91/185/2
f 8/137/2 18/152/2 95/155/2 94/138/2
f 22/153/2 26/160/2 97/163/2 96/154/2
f 86/140/4 87/186/4 124/187/4 123/141/4
f 52/188/2 48/189/2 128/190/2 129/191/2 175/192/2
f 44/193/4 43/194/4 126/195/4 127/196/4 173/197/4
f 48/198/5 44/199/5 173/200/5 127/201/5 128/202/5
f 74/203/3 52/204/3 175/205/3 129/206/3 130/207/3
f 16/208/4 15/209/4 134/210/4 135/211/4
f 80/212/2 75/213/2 147/214/2 148/215/2
f 33/216/5 16/217/5 135/218/5 136/219/5
f 55/220/3 58/221/3 140/222/3 139/223/3
f 9/224/4 55/225/4 139/226/4 131/227/4 178/228/4
f 60/229/2 64/230/2 142/231/2 141/232/2 172/233/2
f 75/213/2 74/234/2 146/235/2 147/214/2
f 13/236/5 9/237/5 178/238/5 131/239/5 132/240/5
f 67/241/3 71/220/3 145/223/3 144/242/3
f 43/243/5 38/244/5 137/245/5 138/246/5
f 58/221/3 60/247/3 172/248/3 141/249/3 140/222/3
f 14/250/4 13/243/4 132/246/4 133/251/4
f 38/244/5 33/216/5 136/219/5 137/245/5
f 66/252/3 67/241/3 144/242/3 143/253/3
f 15/209/4 14/250/4 133/251/4 134/210/4
f 64/230/2 66/187/2 143/254/2 142/231/2
f 40/255/2 41/256/2 164/257/2 163/258/2
f 16/259/5 12/260/5 169/261/5 151/262/5 152/263/5
f 7/264/5 8/265/5 150/266/5 149/267/5 170/268/5
f 115/269/2 171/270/2 172/233/2 141/232/2
f 166/279/1 165/279/1 167/279/1 168/279/1
f 162/280/1 161/279/1 163/279/1 164/279/1
f 21/281/3 23/282/3 165/283/3 166/284/3
f 41/285/5 36/286/5 162/287/5 164/288/5
f 25/289/4 21/290/4 166/291/4 168/292/4
f 36/293/4 35/294/4 161/295/4 162/296/4
f 27/297/5 25/298/5 168/299/5 167/300/5
f 35/256/3 40/285/3 163/288/3 161/257/3
f 169/261/5 170/268/5 149/267/5 151/262/5
f 173/378/2 174/379/2 104/142/2 127/380/2
f 175/205/3 176/181/3 110/180/3 129/206/3
f 178/238/5 177/149/5 90/150/5 131/239/5
f 91/381/5 90/150/5 177/149/5 1/148/5 3/382/5
usemtl floor
f 1/1/1 2/2/1 4/3/1 3/4/1
f 4/3/1 2/2/1 5/5/1 6/6/1
f 6/6/1 5/5/1 7/7/1 8/8/1
f 7/7/1 5/5/1 11/9/1 12/10/1
f 5/5/1 2/2/1 10/11/1 11/9/1
f 2/2/1 1/1/1 9/12/1 10/11/1
f 12/10/1 11/9/1 15/13/1 16/14/1
f 11/9/1 10/11/1 14/15/1 15/13/1
f 10/11/1 9/12/1 13/16/1 14/15/1
f 12/10/1 16/14/1 20/17/1 19/18/1
f 7/7/1 12/10/1 19/18/1 17/19/1
f 8/8/1 7/7/1 17/19/1 18/20/1
f 19/18/1 20/17/1 24/21/1 157/22/1
f 17/19/1 19/18/1 157/22/1 158/23/1
f 18/20/1 17/19/1 158/23/1 22/24/1
f 157/22/1 24/21/1 28/25/1 159/26/1
f 22/24/1 158/23/1 160/27/1 26/28/1
f 159/26/1 28/25/1 32/29/1 31/30/1
f 160/27/1 159/26/1 31/30/1 29/31/1
f 26/28/1 160/27/1 29/31/1 30/32/1
f 20/17/1 16/14/1 33/33/1 34/34/1
f 24/21/1 20/17/1 34/34/1 153/35/1
f 28/25/1 24/21/1 153/35/1 154/36/1
f 32/29/1 28/25/1 154/36/1 37/37/1
f 37/37/1 154/36/1 156/38/1 42/39/1
f 153/35/1 34/34/1 39/40/1 155/41/1
f 34/34/1 33/33/1 38/46/1 39/40/1
f 39/40/1 38/46/1 43/47/1 44/48/1
f 42/39/1 156/38/1 46/49/1 47/50/1
f 155/41/1 39/40/1 44/48/1 45/51/1
f 156/38/1 155/41/1 45/51/1 46/49/1
f 45/51/1 44/48/1 48/52/1 49/53/1
f 49/53/1 48/52/1 50/54/1 51/55/1
f 50/54/1 48/52/1 52/56/1 53/57/1
f 9/12/1 1/1/1 54/58/1 55/59/1
f 55/59/1 54/58/1 56/60/1 57/61/1
f 55/59/1 57/61/1 59/62/1 58/63/1
f 58/63/1 59/62/1 61/64/1 60/65/1
f 60/65/1 61/64/1 63/66/1 62/67/1
f 60/65/1 62/67/1 65/68/1 64/69/1
f 64/69/1 65/68/1 67/70/1 66/71/1
f 67/70/1 65/68/1 70/72/1 71/73/1
f 65/68/1 62/67/1 68/74/1 70/72/1
f 62/67/1 63/66/1 69/75/1 68/74/1
f 53/57/1 52/56/1 72/76/1 73/77/1
f 72/76/1 52/56/1 74/78/1 75/79/1
f 53/57/1 73/77/1 77/80/1 76/81/1
f 77/80/1 73/77/1 79/82/1 81/83/1
f 72/76/1 75/79/1 80/84/1 78/85/1
f 73/77/1 72/76/1 78/85/1 79/82/1
f 68/74/1 69/75/1 83/86/1 82/87/1
f 82/87/1 83/86/1 85/88/1 84/89/1
f 84/89/1 85/88/1 87/90/1 86/91/1
f 84/89/1 86/91/1 89/92/1 88/93/1
f 79/82/1 88/93/1 89/92/1 81/83/1
f 68/74/1 82/87/1 84/89/1 88/93/1 79/82/1 78/85/1 80/84/1 71/73/1 70/72/1
f 35/271/1 36/272/1 154/36/1 153/35/1
f 41/273/1 40/274/1 155/41/1 156/38/1
f 36/272/1 41/273/1 156/38/1 154/36/1
f 40/274/1 35/271/1 153/35/1 155/41/1
f 23/275/1 21/276/1 158/23/1 157/22/1
f 25/277/1 27/278/1 159/26/1 160/27/1
f 27/278/1 23/275/1 157/22/1 159/26/1
f 21/276/1 25/277/1 160/27/1 158/23/1
usemtl roof
f 104/301/7 107/302/7 109/303/7 108/304/7 110/305/7 129/306/7 128/307/7 127/308/7
f 103/309/8 106/310/8 105/311/8 104/312/8 127/313/8 138/314/8 126/315/8 137/316/8 136/317/8 135/318/8 152/319/8 151/320/8 149/321/8 150/322/8 94/323/8 95/324/8 96/325/8 97/326/8 99/327/8 98/328/8 100/329/8 101/330/8 102/331/8
f 91/332/9 92/333/9 93/334/9 94/335/9 138/336/9 152/337/9 151/338/9 149/339/9 135/340/9 134/341/9 133/342/9 132/343/9 131/344/9 90/345/9
f 90/346/10 131/347/10 139/348/10 140/349/10 141/350/10 115/351/10 114/352/10 113/353/10 112/354/10 111/355/10
f 115/356/11 141/357/11 142/358/11 143/359/11 144/360/11 145/361/11 148/362/11 147/363/11 146/364/11 130/365/11 129/366/11 110/367/11 118/368/11 119/369/11 120/370/11 125/371/11 123/372/11 124/373/11 122/374/11 121/375/11 117/376/11 116/377/11
l 126 135
