# Blender 4.0.1
# www.blender.org
mtllib area1.mtl
o Plane
v -1.000000 0.000000 1.000000
v 1.000000 0.000000 1.000000
v -1.000000 0.000000 -1.000000
v 1.000000 0.000000 -1.000000
v 2.992521 0.000000 1.000000
v 2.992521 0.000000 -1.000000
v 4.992918 0.000000 1.000000
v 4.992918 0.000000 -1.000000
v -1.000000 0.000000 3.000397
v 1.000000 0.000000 3.000397
v 2.992521 0.000000 3.000397
v 4.992918 0.000000 3.000397
v -1.000000 0.000000 5.007724
v 1.000000 0.000000 5.007724
v 2.992521 0.000000 5.007724
v 4.992918 0.000000 5.007724
v 6.988904 0.000000 1.000000
v 6.988904 0.000000 3.000397
v 8.984891 0.000000 1.000000
v 8.984891 0.000000 3.000397
v 6.988904 0.000000 4.996383
v 8.984891 0.000000 4.996383
v 6.988904 0.000000 6.992370
v 8.984891 0.000000 6.992370
v 4.992918 0.000000 4.996383
v 4.992918 0.000000 6.992370
v 11.003559 0.000000 4.996383
v 11.003559 0.000000 6.992370
v 6.988904 0.000000 8.988357
v 8.984891 0.000000 8.988357
v 4.992918 0.000000 8.988357
v 11.003559 0.000000 8.988357
v 6.988904 0.000000 11.007025
v 8.984891 0.000000 11.007025
v 4.992918 0.000000 11.007025
v 11.003559 0.000000 11.007025
v 3.033222 0.000000 6.992370
v 3.033222 0.000000 8.988357
v 1.014735 0.000000 6.992370
v 1.014735 0.000000 8.988357
v 3.033222 0.000000 10.987247
v 1.014735 0.000000 10.987247
v 3.033222 0.000000 12.986136
v 1.014735 0.000000 12.986136
v -0.984156 0.000000 10.987247
v -0.984156 0.000000 12.986136
v 4.992918 0.000000 10.987247
v 4.992918 0.000000 12.986136
v 3.033222 0.000000 14.985026
v 1.014735 0.000000 14.985026
v -0.984156 0.000000 14.985026
v 4.992918 0.000000 14.985026
v 3.033222 0.000000 17.003513
v 1.014735 0.000000 17.003513
v -0.984156 0.000000 17.003513
v 4.992918 0.000000 17.003513
v -2.987749 0.000000 12.986136
v -2.987749 0.000000 14.985026
v -4.963123 0.000000 12.986136
v -4.963123 0.000000 14.985026
v -2.975374 0.000000 1.000000
v -2.975374 0.000000 3.000397
v -4.978968 0.000000 1.000000
v -4.978968 0.000000 3.000397
v -1.000000 6.349417 1.000000
v -1.000000 6.349417 -1.000000
v 1.000000 6.349417 -1.000000
v 2.992521 6.349417 -1.000000
v 4.992918 6.349417 1.000000
v 4.992918 6.349417 -1.000000
v 6.988904 6.349417 1.000000
v 8.984891 6.349417 1.000000
v 8.984891 6.349417 3.000397
v 8.984891 6.349417 4.996383
v 11.003559 6.349417 4.996383
v 11.003559 6.349417 6.992370
v 11.003559 6.349417 8.988357
v 6.988904 6.349417 11.007025
v 8.984891 6.349417 11.007025
v 11.003559 6.349417 11.007025
v 4.992918 6.349417 10.987247
v 4.992918 6.349417 12.986136
v -0.984156 6.349417 14.985026
v 4.992918 6.349417 14.985026
v 3.033222 6.349417 17.003513
v 1.014735 6.349417 17.003513
v -0.984156 6.349417 17.003513
v 4.992918 6.349417 17.003513
v -2.987749 6.349417 14.985026
v -4.963123 6.349417 12.986136
v -4.963123 6.349417 14.985026
v -2.975374 6.349417 1.000000
v -4.978968 6.349417 1.000000
v -4.978968 6.349417 3.000397
v -1.000000 6.321197 3.000397
v -1.000000 6.321197 5.007724
v 1.000000 6.321197 5.007724
v 2.992521 6.321197 5.007724
v 4.992918 6.321197 5.007724
v 4.992918 6.321197 4.996383
v 4.992918 6.321197 6.992370
v 3.033222 6.321197 6.992370
v 1.014735 6.321197 6.992370
v 1.014735 6.321197 8.988357
v 1.014735 6.321197 10.987247
v -0.984156 6.321197 10.987247
v -0.984156 6.321197 12.986136
v -2.987749 6.321197 12.986136
v -2.975374 6.321197 3.000397
v 4.992918 6.310223 3.000397
v 4.992918 6.310223 5.007724
v 6.988904 6.310223 3.000397
v 6.988904 6.310223 4.996383
v 4.992918 6.310223 4.996383
v 4.992918 6.329819 8.988357
v 4.992918 6.329819 11.007025
v 3.033222 6.329819 8.988357
v 3.033222 6.329819 10.987247
v 4.992918 6.329819 10.987247
v 4.858730 0.000000 8.988357
v 4.858730 0.000000 6.992370
v 5.225564 0.000000 8.988357
v 5.225564 0.000000 6.992370
v 4.992918 4.740950 6.992370
v 4.992918 4.747375 8.988357
v 11.003559 5.917238 8.988357
v 4.992918 4.985298 6.992370
v 4.992918 4.985085 8.988357
v 11.003559 5.865049 6.992370
v 6.988904 4.976624 4.996383
v 8.984891 4.987073 4.996383
v 1.014735 4.976981 10.987247
v 3.033222 4.983775 10.987247
v 4.992918 4.987609 1.000000
v 4.992918 4.985354 3.000397
v -0.984156 4.992251 14.985026
v -0.984156 4.992203 12.986136
v -1.000000 4.979625 3.000397
v -1.000000 5.007934 1.000000
vn -0.0000 1.0000 -0.0000
vn -0.0000 -0.0000 -1.0000
vn -0.0000 -0.0000 1.0000
vn 1.0000 -0.0000 -0.0000
vn -1.0000 -0.0000 -0.0000
vn 1.0000 -0.0000 -0.0016
vn -1.0000 -0.0000 -0.0012
vn -0.0000 -0.0016 -1.0000
vn 0.0022 -1.0000 0.0021
vn 0.0049 -1.0000 0.0032
vn 0.0098 -0.9999 -0.0098
vn -0.0009 -1.0000 -0.0047
vn 0.0024 -1.0000 0.0040
vn -0.0095 -1.0000 -0.0000
vt 0.000000 0.000000
vt 1.000000 0.000000
vt 1.000000 1.000000
vt 0.000000 1.000000
vt -1.008407 1.320626
vt -1.324961 1.320626
vt -1.324961 0.315100
vt -1.008407 0.315100
vt 1.536573 0.315100
vt 1.220479 0.315100
vt 1.220479 -0.690426
vt 1.536573 -0.690426
vt -0.378401 1.320626
vt -0.688749 1.320626
vt -0.688749 0.315100
vt -0.378401 0.315100
vt 1.001131 -1.266295
vt 0.684401 -1.266295
vt 0.684401 -2.271821
vt 1.001131 -2.271821
vt 1.514957 2.321683
vt 1.198164 2.321683
vt 1.198164 1.316158
vt 1.514957 1.316158
vt -1.319054 0.315100
vt -1.635609 0.315100
vt -1.635609 -0.690426
vt -1.319054 -0.690426
vt -1.642261 1.320626
vt -1.642261 0.315100
vt -1.952163 0.315100
vt -2.271821 0.315100
vt -2.271821 -0.690426
vt -1.952163 -0.690426
vt 1.317226 -1.266295
vt 1.001131 -1.266295
vt 1.001131 -2.056073
vt 1.001131 -2.271821
vt 1.317226 -2.271821
vt 2.172326 0.315100
vt 1.852668 0.315100
vt 1.852668 -0.475498
vt 1.852668 -0.690426
vt 2.172326 -0.690426
vt -0.683273 0.315100
vt -0.999368 0.315100
vt -0.999368 -0.621984
vt -0.683273 -0.613719
vt 0.368855 -1.266295
vt 0.368855 -2.271821
vt -1.955091 2.326152
vt -2.271821 2.326152
vt -2.271821 1.536289
vt -2.271821 1.320626
vt -1.955091 1.320626
vt 0.030695 -1.144500
vt -1.550699 -1.142221
vt -1.552148 -2.147747
vt 0.029245 -2.150026
vt 0.900792 0.315100
vt 0.584698 0.315100
vt 0.584698 -0.690426
vt 0.900792 -0.690426
vt 0.052062 -1.266295
vt 0.052062 -2.271821
vt 2.147357 1.320626
vt 1.830058 1.320626
vt 1.830058 0.315100
vt 2.147357 0.315100
vt 2.147357 0.530028
vt -1.638537 2.326152
vt -1.638537 1.320626
vt -0.367178 0.315100
vt -0.683273 -0.690426
vt -0.367178 -0.690426
vt 1.517228 1.320626
vt 1.517228 0.315100
vt 1.852668 -0.474763
vt -1.319054 0.315100
vt -1.319054 -0.690426
vt -0.999368 -0.690426
vt -1.955091 1.320626
vt -2.271821 1.320626
vt -2.271821 0.315100
vt -1.955091 0.315100
vt -1.955091 0.527544
vt 1.634019 -1.266295
vt 1.634019 -2.271821
vt -0.047492 0.315100
vt -0.367178 0.315100
vt -0.367178 -0.690426
vt -0.047492 -0.690426
vt -0.047492 -0.474678
vt 0.568158 1.317523
vt 0.251604 1.317523
vt 0.251604 0.529342
vt 0.251604 0.316465
vt 0.568158 0.316465
vt 1.200434 1.316157
vt 0.884888 1.316157
vt 0.884888 0.315100
vt 1.200434 0.315100
vt -1.556464 -1.981653
vt 0.024930 -1.981653
vt 0.024931 -0.980596
vt -1.556463 -0.980596
vt 2.266668 -1.270764
vt 1.950114 -1.270764
vt 1.950114 -2.271821
vt 2.266668 -2.271821
vt 2.266668 -2.058944
vt 1.517228 1.316157
vt 1.517228 0.315100
vt 0.878506 2.317214
vt 0.568158 2.317214
vt 0.568158 1.566413
vt 0.568158 1.527717
vt 0.568158 1.316157
vt 0.878506 1.316157
vt 2.582763 -1.270764
vt 2.582763 -2.271821
vt 2.582763 -2.060261
vt 2.582763 -2.021565
vt 1.634019 -1.270764
vt 2.778079 1.316157
vt 2.465248 1.316157
vt 2.465248 0.315100
vt 2.778079 0.315100
vt 2.778079 0.527558
vt 2.467176 2.321683
vt 2.149877 2.321683
vt 2.149877 1.531093
vt 2.149877 1.320626
vt 2.467176 1.320626
vt 2.465248 1.316157
vt 2.147357 1.316157
vt 2.147357 0.527558
vt 2.147357 0.315100
vt 2.465248 0.315100
vt 1.198164 2.317214
vt 1.198164 1.316157
vt 2.488880 0.310631
vt 2.172326 0.310631
vt 2.172326 -0.690426
vt 2.488880 -0.690426
vt 2.488880 -0.479960
vt 0.568158 0.315100
vt 2.804975 0.308893
vt 2.488880 0.308893
vt 2.488880 -0.690426
vt 2.804975 -0.690426
vt 2.804975 -0.479231
vt 2.898857 -1.272502
vt 2.582762 -1.272502
vt 2.582762 -2.062008
vt 2.582762 -2.271821
vt 2.898857 -2.271821
vt 2.785067 2.319945
vt 2.467176 2.319945
vt 2.467176 1.320626
vt 2.785067 1.320626
vt 2.785067 1.530439
vt 0.584697 0.315100
vt 0.268603 0.315100
vt 0.268603 -0.473024
vt 0.268603 -0.684219
vt 0.584697 -0.684219
vt 1.833782 2.323049
vt 1.517228 2.323049
vt 1.517228 1.533793
vt 1.517228 1.320626
vt 1.833782 1.320626
vt -0.068054 1.317523
vt -0.378401 1.317523
vt -0.378401 0.315100
vt -0.068054 0.315100
vt -0.068054 0.528266
vt 0.565532 2.319945
vt 0.255185 2.319945
vt 0.255185 1.317522
vt 0.565532 1.317522
vt 0.565532 1.530481
vt 0.565532 1.568126
vt -0.686201 2.323049
vt -1.005887 2.323049
vt -1.005887 1.571230
vt -1.005887 1.533585
vt -1.005887 1.320626
vt -0.686201 1.320626
vt -1.321982 2.326156
vt -1.321982 1.323735
vt -1.321982 1.323730
vt -1.321982 2.326151
vt -1.321982 1.320626
vt -1.005888 1.320631
vt -1.005888 2.326156
vt -0.061608 1.323730
vt -0.061608 1.533543
vt -0.378401 1.533186
vt -0.378401 1.317523
vt 0.255185 1.317523
vt 0.255185 1.529967
vt -0.061608 1.534450
vt -0.061608 1.321992
vt -1.321982 1.325095
vt -1.321982 1.535561
vt -1.638536 1.535554
vt -1.638536 1.320626
vt 2.149877 1.321992
vt 2.149877 1.533551
vt 1.833782 1.533585
vt 0.999121 0.002410
vt 0.998949 0.500674
vt 0.509748 0.500505
vt 0.509566 0.999489
vt 0.005685 0.999305
vt 0.005867 0.500321
vt 0.006044 0.002062
vt 0.509921 0.002241
vt 0.997525 0.338317
vt 0.997707 0.666998
vt 0.997891 0.999413
vt 0.665475 0.999597
vt 0.336794 0.999779
vt 0.008112 0.996725
vt 0.004865 0.999963
vt 0.007503 0.010184
vt 0.336183 0.009981
vt 0.664928 0.009820
vt 0.997343 0.009636
vt 0.499587 0.000769
vt 0.998376 0.000621
vt 0.998525 0.500512
vt 0.998769 0.999301
vt 0.499883 0.999545
vt 0.499639 0.500756
vt 0.000850 0.500808
vt 0.000798 0.000821
vt 0.009201 0.009593
vt 0.338379 0.009560
vt 0.666326 0.009528
vt 0.995569 0.009495
vt 0.995602 0.338673
vt 0.995636 0.667979
vt 0.997463 0.998358
vt 0.995656 0.998368
vt 0.666413 0.998388
vt 0.338466 0.998410
vt 0.009288 0.998431
vt 0.009266 0.668047
vt 0.009234 0.338771
vt 0.989622 0.338427
vt 0.989513 0.666893
vt 0.989402 0.998580
vt 0.667376 0.998472
vt 0.335690 0.998361
vt 0.007223 0.998252
vt 0.007334 0.666565
vt 0.007433 0.338066
vt 0.007550 0.009600
vt 0.336016 0.009717
vt 0.667706 0.009838
vt 0.989717 0.006741
vt 0.989748 0.009961
vt 0.498509 1.662077
vt 0.170068 1.662011
vt 0.170135 1.329660
vt 0.167665 -0.330647
vt 0.167665 -0.663249
vt 0.500798 -0.663249
vt 0.829239 -0.663282
vt 0.829272 -0.330647
vt 0.500831 -0.330614
vt 0.498609 1.329693
vt 0.831742 1.329793
vt 0.831643 1.662177
s 0
usemtl wall
f 54/5/2 55/6/2 87/7/2 86/8/2
f 17/9/3 19/10/3 72/11/3 71/12/3
f 56/13/2 53/14/2 85/15/2 88/16/2
f 3/17/3 4/18/3 67/19/3 66/20/3
f 64/21/4 63/22/4 93/23/4 94/24/4
f 47/25/5 48/26/5 82/27/5 81/28/5
f 63/6/3 61/29/3 92/30/3 93/7/3
f 52/31/5 56/32/5 88/33/5 84/34/5
f 20/35/5 22/36/5 131/37/5 74/38/5 73/39/5
f 55/40/4 51/41/4 136/42/4 83/43/4 87/44/4
f 28/45/5 32/46/5 126/47/5 129/48/5
f 4/18/3 6/49/3 68/50/3 67/19/3
f 8/51/5 7/52/5 134/53/5 69/54/5 70/55/5
f 59/56/6 64/57/6 94/58/6 90/59/6
f 34/60/2 33/61/2 78/62/2 79/63/2
f 6/49/3 8/64/3 70/65/3 68/50/3
f 51/66/2 58/67/2 89/68/2 83/69/2 136/70/2
f 60/71/4 59/51/4 90/55/4 91/72/4
f 36/10/2 34/60/2 79/63/2 80/11/2
f 48/26/5 52/31/5 84/34/5 82/27/5
f 27/73/5 28/45/5 129/48/5 76/74/5 75/75/5
f 58/67/2 60/76/2 91/77/2 89/68/2
f 7/41/3 17/9/3 71/12/3 69/43/3 134/78/3
f 32/46/5 36/79/5 80/80/5 77/81/5 126/47/5
f 1/82/4 3/83/4 66/84/4 65/85/4 139/86/4
f 19/87/5 20/35/5 73/39/5 72/88/5
f 53/14/2 54/5/2 86/8/2 85/15/2
f 22/89/3 27/90/3 75/91/3 74/92/3 131/93/3
f 61/29/3 1/82/3 139/86/3 65/85/3 92/30/3
f 45/94/3 42/95/3 132/96/3 105/97/3 106/98/3
f 15/99/2 14/100/2 97/101/2 98/102/2
f 62/103/7 57/104/7 108/105/7 109/106/7
f 42/107/4 40/108/4 104/109/4 105/110/4 132/111/4
f 16/112/2 15/99/2 98/102/2 99/113/2
f 37/114/3 26/115/3 124/116/3 127/117/3 101/118/3 102/119/3
f 26/120/4 25/107/4 100/110/4 101/121/4 127/122/4 124/123/4
f 40/108/4 39/124/4 103/88/4 104/109/4
f 9/125/2 62/126/2 109/127/2 95/128/2 138/129/2
f 57/130/3 46/131/3 137/132/3 107/133/3 108/134/3
f 13/135/4 9/136/4 138/137/4 95/138/4 96/139/4
f 39/140/3 37/114/3 102/119/3 103/141/3
f 46/142/4 45/143/4 106/144/4 107/145/4 137/146/4
f 14/100/2 13/118/2 96/147/2 97/101/2
f 21/148/4 18/149/4 112/150/4 113/151/4 130/152/4
f 18/153/2 12/154/2 135/155/2 110/156/2 112/157/2
f 12/158/5 16/159/5 111/160/5 110/161/5 135/162/5
f 25/163/3 21/164/3 130/165/3 113/166/3 114/167/3
f 38/168/5 41/169/5 133/170/5 118/171/5 117/172/5
f 41/173/3 47/174/3 119/175/3 118/176/3 133/177/3
f 31/178/2 38/179/2 117/180/2 115/181/2 128/182/2 125/183/2
f 35/184/4 31/185/4 125/186/4 128/187/4 115/188/4 116/189/4
f 35/190/8 116/191/8 119/192/8 47/193/8 81/194/8 78/195/8 33/196/8
f 113/166/3 130/165/3 131/93/3 74/92/3
f 110/197/4 135/198/4 134/199/4 69/200/4
f 65/201/5 139/202/5 138/203/5 95/204/5
f 107/205/5 137/206/5 136/207/5 83/208/5
f 105/97/3 132/96/3 133/177/3 118/176/3
f 101/209/5 127/210/5 128/211/5 115/172/5
f 129/48/5 126/47/5 77/81/5 76/74/5
usemtl floor
f 1/1/1 2/2/1 4/3/1 3/4/1
f 4/1/1 2/2/1 5/3/1 6/4/1
f 6/1/1 5/2/1 7/3/1 8/4/1
f 7/1/1 5/2/1 11/3/1 12/4/1
f 5/1/1 2/2/1 10/3/1 11/4/1
f 2/1/1 1/2/1 9/3/1 10/4/1
f 12/1/1 11/2/1 15/3/1 16/4/1
f 11/1/1 10/2/1 14/3/1 15/4/1
f 10/1/1 9/2/1 13/3/1 14/4/1
f 7/1/1 12/2/1 18/3/1 17/4/1
f 17/1/1 18/2/1 20/3/1 19/4/1
f 20/1/1 18/2/1 21/3/1 22/4/1
f 22/1/1 21/2/1 23/3/1 24/4/1
f 23/1/1 21/2/1 25/3/1 26/4/1
f 22/1/1 24/2/1 28/3/1 27/4/1
f 28/1/1 24/2/1 30/3/1 32/4/1
f 23/1/1 26/2/1 31/3/1 29/4/1
f 24/1/1 23/2/1 29/3/1 30/4/1
f 32/1/1 30/2/1 34/3/1 36/4/1
f 29/1/1 31/2/1 35/3/1 33/4/1
f 30/1/1 29/2/1 33/3/1 34/4/1
f 31/1/1 26/2/1 37/3/1 38/4/1
f 38/1/1 37/2/1 39/3/1 40/4/1
f 38/1/1 40/2/1 42/3/1 41/4/1
f 41/1/1 42/2/1 44/3/1 43/4/1
f 44/1/1 42/2/1 45/3/1 46/4/1
f 41/1/1 43/2/1 48/3/1 47/4/1
f 48/1/1 43/2/1 49/3/1 52/4/1
f 44/1/1 46/2/1 51/3/1 50/4/1
f 43/1/1 44/2/1 50/3/1 49/4/1
f 52/1/1 49/2/1 53/3/1 56/4/1
f 50/1/1 51/2/1 55/3/1 54/4/1
f 49/1/1 50/2/1 54/3/1 53/4/1
f 51/1/1 46/2/1 57/3/1 58/4/1
f 58/1/1 57/2/1 59/3/1 60/4/1
f 9/1/1 1/2/1 61/3/1 62/4/1
f 62/1/1 61/2/1 63/3/1 64/4/1
f 57/1/1 62/2/1 64/3/1 59/4/1
usemtl roof
f 101/212/9 115/213/9 117/214/9 118/215/9 105/216/9 104/217/9 103/218/9 102/219/9
f 76/220/10 77/221/10 80/222/10 79/223/10 78/224/10 81/225/10 116/226/10 114/227/10 113/228/10 74/229/10 75/230/10
f 71/231/11 72/232/11 73/233/11 74/234/11 113/235/11 112/236/11 110/237/11 69/238/11
f 66/239/12 67/240/12 68/241/12 70/242/12 69/243/12 110/244/12 111/245/12 99/246/12 98/247/12 97/248/12 96/249/12 95/250/12 65/251/12
f 82/252/13 84/253/13 88/254/13 85/255/13 86/256/13 87/257/13 83/258/13 107/259/13 106/260/13 105/261/13 118/262/13 119/263/13 81/264/13
f 89/265/14 91/266/14 90/267/14 94/268/14 93/269/14 92/270/14 65/271/14 95/272/14 109/273/14 108/274/14 107/275/14 83/276/14
l 122 31
l 123 26
l 120 31
l 121 26
l 100 81
