# Blender 4.0.1
# www.blender.org
mtllib door.mtl
o Door
v 0.002642 2.501809 -1.000000
v 0.002642 -2.501808 -1.000000
v 0.002642 -2.501808 1.000000
v 0.002642 2.501809 1.000000
v 0.191631 -2.501808 1.000000
v 0.191631 2.501809 1.000000
v 0.191631 -2.501808 -1.000000
v 0.191631 2.501809 -1.000000
v -0.194273 2.501809 -1.000000
v -0.194273 -2.501808 -1.000000
v -0.194273 -2.501808 1.000000
v -0.194273 2.501809 1.000000
vn -0.0000 1.0000 -0.0000
vn -0.0000 -0.0000 1.0000
vn 1.0000 -0.0000 -0.0000
vn -0.0000 -0.0000 -1.0000
vn -0.0000 -1.0000 -0.0000
vn -1.0000 -0.0000 -0.0000
vt 0.032139 0.416717
vt 0.012723 0.416717
vt 0.012723 0.583283
vt 0.032139 0.583283
vt 0.040487 0.078511
vt 0.002268 0.078511
vt 0.002268 0.921489
vt 0.040487 0.921489
vt 0.455752 -0.000959
vt 0.455752 0.960896
vt 0.045550 0.960896
vt 0.045550 -0.000959
vt 0.029122 0.416717
vt 0.029122 0.583283
vt 0.038287 0.075149
vt 0.004469 0.075149
vt 0.004469 0.924851
vt 0.038287 0.924851
vt 0.625000 0.500000
vt 0.875000 0.500000
vt 0.875000 0.750000
vt 0.625000 0.750000
vt 0.457434 -0.003248
vt 0.457434 0.957278
vt 0.043868 0.957278
vt 0.043868 -0.003248
vt 0.004851 0.080560
vt 0.035443 0.080560
vt 0.035443 0.919440
vt 0.004851 0.919440
vt 0.003946 0.098413
vt 0.036349 0.098413
vt 0.036349 0.901587
vt 0.003946 0.901587
s 0
usemtl wall
f 2/19/5 7/20/5 5/21/5 3/22/5
f 2/19/5 3/22/5 11/22/5 10/19/5
usemtl door
f 8/1/1 1/2/1 4/3/1 6/4/1
f 5/5/2 6/6/2 4/7/2 3/8/2
f 7/9/3 8/10/3 6/11/3 5/12/3
f 4/3/1 1/2/1 9/13/1 12/14/1
f 2/15/4 1/16/4 8/17/4 7/18/4
f 11/23/6 12/24/6 9/25/6 10/26/6
f 3/27/2 4/28/2 12/29/2 11/30/2
f 1/31/4 2/32/4 10/33/4 9/34/4
